<svg id="Capa_1" enable-background="new 0 0 512 512" height="512" viewBox="0 0 512 512" width="512" xmlns="http://www.w3.org/2000/svg" xmlns:xlink="http://www.w3.org/1999/xlink"><linearGradient id="SVGID_1_" gradientUnits="userSpaceOnUse" x1="256" x2="256" y1="-137" y2="599.327"><stop offset=".0023" stop-color="#ff9494"/><stop offset=".992" stop-color="#ffe8dc" stop-opacity="0"/></linearGradient><linearGradient id="SVGID_2_" gradientUnits="userSpaceOnUse" x1="280.62" x2="280.62" y1="312.998" y2="111.375"><stop offset="0" stop-color="#ff4d4d" stop-opacity=".4"/><stop offset="1" stop-color="#ff4d4d" stop-opacity="0"/></linearGradient><g><path d="m419.843 204.806c1.055-7.758 1.57-15.687 1.509-23.748-.692-90.025-74.256-163.486-164.281-164.057-91.815-.581-166.428 73.673-166.428 165.354 0 7.615.516 15.109 1.514 22.45 4.043 29.747-9.887 59.143-35.212 75.263-35.612 22.668-56.945 51.54-56.945 82.98 0 72.876 114.615 131.954 256 131.954s256-59.078 256-131.954c0-31.44-21.333-60.312-56.946-82.98-25.325-16.12-39.254-45.516-35.211-75.262z" fill="url(#SVGID_1_)"/><g><path d="m434.71 424.107c-1.279 0-2.56-.488-3.535-1.464-1.953-1.953-1.953-5.119 0-7.071l10-10c1.951-1.952 5.119-1.952 7.07 0 1.953 1.953 1.953 5.119 0 7.071l-10 10c-.975.976-2.256 1.464-3.535 1.464z" fill="#ff6c6c"/><path d="m403.12 69.82c-1.279 0-2.56-.488-3.535-1.464-1.953-1.953-1.953-5.119 0-7.071l10-10c1.951-1.952 5.119-1.952 7.07 0 1.953 1.953 1.953 5.119 0 7.071l-10 10c-.975.976-2.256 1.464-3.535 1.464z" fill="#ff9d33"/><path d="m300.848 90.82c-1.279 0-2.56-.488-3.535-1.464-1.953-1.953-1.953-5.119 0-7.071l10-10c1.951-1.952 5.119-1.952 7.07 0 1.953 1.953 1.953 5.119 0 7.071l-10 10c-.976.975-2.256 1.464-3.535 1.464z" fill="#6c6cff"/><path d="m347.926 462.18c-1.279 0-2.56-.488-3.535-1.464l-6.465-6.464-6.465 6.464c-1.951 1.952-5.119 1.952-7.07 0-1.953-1.953-1.953-5.119 0-7.071l10-10c1.951-1.952 5.119-1.952 7.07 0l10 10c1.953 1.953 1.953 5.119 0 7.071-.976.976-2.256 1.464-3.535 1.464z" fill="#6c6cff"/><path d="m67.29 237.217c-1.28 0-2.559-.488-3.536-1.464l-6.464-6.464-6.464 6.464c-1.953 1.952-5.118 1.952-7.071 0-1.953-1.953-1.953-5.119 0-7.071l10-10c1.953-1.952 5.118-1.952 7.071 0l10 10c1.953 1.953 1.953 5.119 0 7.071-.977.976-2.256 1.464-3.536 1.464z" fill="#ff6c6c"/><g><path d="m454.71 381.122h-348.18c-5.523 0-10-4.477-10-10v-181.623c0-5.523 4.477-10 10-10h348.18c5.523 0 10 4.477 10 10v181.622c0 5.523-4.477 10.001-10 10.001z" fill="#ff7300"/><path d="m454.71 312.998h-348.18c-5.523 0-10-4.477-10-10v-181.623c0-5.523 4.477-10 10-10h348.18c5.523 0 10 4.477 10 10v181.622c0 5.523-4.477 10.001-10 10.001z" fill="#ff8b00"/><path d="m422.357 147.677 2.491-10.104c.777-3.152-1.608-6.197-4.855-6.197h-278.747c-3.246 0-5.632 3.045-4.855 6.197l2.492 10.104c.9 3.651-2.401 6.952-6.052 6.052l-10.104-2.491c-3.152-.777-6.197 1.608-6.197 4.855v112.19c0 3.246 3.045 5.632 6.197 4.855l10.104-2.492c3.651-.9 6.952 2.401 6.052 6.052l-2.492 10.104c-.777 3.152 1.608 6.197 4.855 6.197h278.748c3.246 0 5.632-3.045 4.855-6.197l-2.491-10.104c-.9-3.651 2.401-6.952 6.052-6.052l10.104 2.492c3.152.777 6.197-1.608 6.197-4.855v-112.19c0-3.246-3.045-5.632-6.197-4.855l-10.104 2.491c-3.652.899-6.953-2.401-6.053-6.052z" fill="#fff"/><g><circle cx="280.62" cy="212.186" fill="#ffc599" r="57.305"/><g fill="#ffab66"><circle cx="236.653" cy="168.219" r="18.739"/><ellipse cx="324.587" cy="256.154" rx="18.739" ry="18.74" transform="matrix(.159 -.987 .987 .159 20.011 535.806)"/></g><g><g fill="#ff7300"><path d="m287.14 237.378h-20.981c-2.762 0-5-2.239-5-5s2.238-5 5-5h20.981c2.81 0 5.096-2.286 5.096-5.096 0-2.809-2.286-5.096-5.096-5.096h-13.039c-8.324 0-15.096-6.772-15.096-15.096s6.771-15.096 15.096-15.096h20.981c2.762 0 5 2.239 5 5s-2.238 5-5 5h-20.981c-2.81 0-5.096 2.286-5.096 5.096s2.286 5.096 5.096 5.096h13.039c8.324 0 15.096 6.772 15.096 15.096-.001 8.324-6.772 15.096-15.096 15.096z"/><path d="m280.62 244.896c-2.762 0-5-2.239-5-5v-55.419c0-2.761 2.238-5 5-5s5 2.239 5 5v55.419c0 2.761-2.238 5-5 5z"/></g></g></g><g><g><g fill="#ff4d4d"><path d="m374.3 245.736c0 3.087-2.503 5.59-5.59 5.59s-5.59-2.503-5.59-5.59 2.503-5.59 5.59-5.59 5.59 2.502 5.59 5.59z"/><path d="m391.21 245.736c0 3.087-2.503 5.59-5.59 5.59s-5.59-2.503-5.59-5.59 2.503-5.59 5.59-5.59 5.59 2.502 5.59 5.59z"/><path d="m402.53 240.146c3.087 0 5.59 2.503 5.59 5.59s-2.503 5.59-5.59 5.59-5.59-2.503-5.59-5.59c0-3.088 2.503-5.59 5.59-5.59"/></g><g><g><g fill="#ff4d4d"><circle cx="368.71" cy="178.637" r="5.59"/><circle cx="385.62" cy="178.637" r="5.59"/><path d="m402.53 173.048c3.087 0 5.59 2.503 5.59 5.59s-2.503 5.59-5.59 5.59-5.59-2.503-5.59-5.59c0-3.088 2.503-5.59 5.59-5.59"/></g></g></g></g><g><g fill="#ff4d4d"><path d="m164.3 245.736c0 3.087-2.503 5.59-5.59 5.59s-5.59-2.503-5.59-5.59 2.503-5.59 5.59-5.59 5.59 2.502 5.59 5.59z"/><path d="m181.21 245.736c0 3.087-2.503 5.59-5.59 5.59s-5.59-2.503-5.59-5.59 2.503-5.59 5.59-5.59 5.59 2.502 5.59 5.59z"/><path d="m192.53 240.146c3.087 0 5.59 2.503 5.59 5.59s-2.503 5.59-5.59 5.59-5.59-2.503-5.59-5.59c0-3.088 2.503-5.59 5.59-5.59"/></g><g><g><g fill="#ff4d4d"><circle cx="158.71" cy="178.637" r="5.59"/><circle cx="175.62" cy="178.637" r="5.59"/><path d="m192.53 173.048c3.087 0 5.59 2.503 5.59 5.59s-2.503 5.59-5.59 5.59-5.59-2.503-5.59-5.59c0-3.088 2.503-5.59 5.59-5.59"/></g></g></g></g></g></g><path d="m454.71 312.998h-348.18c-5.523 0-10-4.477-10-10v-181.623c0-5.523 4.477-10 10-10h348.18c5.523 0 10 4.477 10 10v181.622c0 5.523-4.477 10.001-10 10.001z" fill="url(#SVGID_2_)"/><g><g fill="#ff2c2c"><path d="m330.287 317.998h134.423v-10h-134.423c-2.762 0-5 2.239-5 5s2.238 5 5 5z"/><path d="m296.287 353.74h168.423v10h-168.423z"/><path d="m296.287 331.357h168.423v10h-168.423z"/></g><path d="m388.343 232.217c2.762 0 5-2.239 5-5v-30.062c0-2.761-2.238-5-5-5h-5.444c-2.762 0-5 2.239-5 5s2.238 5 5 5h.444v25.062c0 2.762 2.238 5 5 5z" fill="#4d4dff"/><path d="m178.342 232.217c2.761 0 5-2.239 5-5v-30.062c0-2.761-2.239-5-5-5h-5.444c-2.761 0-5 2.239-5 5s2.239 5 5 5h.444v25.062c0 2.762 2.239 5 5 5z" fill="#4d4dff"/></g><g><path d="m286.287 428.265h-221.333c-5.523 0-10-4.477-10-10v-140.924c0-5.523 4.477-10 10-10h221.333c5.523 0 10 4.477 10 10v140.923c0 5.523-4.477 10.001-10 10.001z" fill="#ffc599"/><path d="m54.954 293.508h241.333v32.667h-241.333z" fill="#2c27ff"/><g><path d="m127.277 404.465h-42.5c-2.762 0-5-2.239-5-5s2.238-5 5-5h42.5c2.762 0 5 2.239 5 5s-2.238 5-5 5z" fill="#fff"/></g><g><path d="m96.371 352.803h-11.594c-2.762 0-5-2.239-5-5s2.238-5 5-5h11.594c2.762 0 5 2.239 5 5s-2.238 5-5 5z" fill="#ff4d4d"/></g><g><path d="m190.277 404.465h-42.5c-2.762 0-5-2.239-5-5s2.238-5 5-5h42.5c2.762 0 5 2.239 5 5s-2.238 5-5 5z" fill="#fff"/></g><g><path d="m163.277 384.238h-78.5c-2.762 0-5-2.239-5-5s2.238-5 5-5h78.5c2.762 0 5 2.239 5 5s-2.238 5-5 5z" fill="#fff"/></g><g fill="#ff8b00"><path d="m266.695 362.803c-1.279 0-2.56-.488-3.535-1.464-1.953-1.953-1.953-5.119 0-7.071l10-10c1.951-1.952 5.119-1.952 7.07 0 1.953 1.953 1.953 5.119 0 7.071l-10 10c-.975.975-2.255 1.464-3.535 1.464z"/><path d="m242.76 362.803c-1.28 0-2.559-.488-3.536-1.464-1.953-1.953-1.953-5.119 0-7.071l10-10c1.953-1.952 5.118-1.952 7.071 0 1.952 1.953 1.952 5.119 0 7.071l-10 10c-.976.975-2.255 1.464-3.535 1.464z"/><path d="m218.825 362.803c-1.28 0-2.559-.488-3.536-1.464-1.953-1.953-1.953-5.119 0-7.071l10-10c1.953-1.952 5.118-1.952 7.071 0 1.953 1.953 1.953 5.119 0 7.071l-10 10c-.976.975-2.255 1.464-3.535 1.464z"/><path d="m194.89 362.803c-1.28 0-2.559-.488-3.536-1.464-1.953-1.953-1.953-5.119 0-7.071l10-10c1.953-1.952 5.118-1.952 7.071 0 1.953 1.953 1.953 5.119 0 7.071l-10 10c-.976.975-2.255 1.464-3.535 1.464z"/></g><path d="m141.715 334.419h-56.938c-2.761 0-5-2.239-5-5v-6.49c0-2.761 2.239-5 5-5h56.938c2.761 0 5 2.239 5 5v6.49c0 2.762-2.238 5-5 5z" fill="#ff4d4d"/></g></g></g></svg>