<svg id="Capa_1" enable-background="new 0 0 512 512" height="512" viewBox="0 0 512 512" width="512" xmlns="http://www.w3.org/2000/svg"><g><path d="m137.82 15h236.36v482h-236.36z" fill="#ffe987"/><path d="m256 15h118.18v482h-118.18z" fill="#fecb6e"/><path d="m206.571 68.857h30v30h-30z" fill="#00b3ff"/><path d="m275.429 68.857h30v30h-30z" fill="#3a80e8"/><path d="m206.571 206.571h30v30h-30z" fill="#00b3ff"/><path d="m275.429 206.571h30v30h-30z" fill="#3a80e8"/><path d="m206.571 344.286h30v30h-30z" fill="#00b3ff"/><path d="m275.429 344.286h30v30h-30z" fill="#3a80e8"/><g fill="#39648e"><path d="m118.29 0h275.42v30h-275.42z"/><path d="m118.29 275.43h275.42v30h-275.42z"/><path d="m118.29 137.71h275.42v30h-275.42z"/></g><path d="m206.57 423.86h98.86v73.14h-98.86z" fill="#fd676a"/><path d="m256 423.86h49.43v73.14h-49.43z" fill="#fc363b"/><path d="m256 0h137.71v30h-137.71z" fill="#324d75"/><path d="m256 137.71h137.71v30h-137.71z" fill="#324d75"/><path d="m256 275.43h137.71v30h-137.71z" fill="#324d75"/><path d="m21.57 423.86h30v73.14h-30z" fill="#9dd867"/><path d="m36.57 423.86h15v73.14h-15z" fill="#77c080"/><path d="m73.14 365.71v36.58c0 20.19-16.37 36.57-36.57 36.57s-36.57-16.38-36.57-36.57v-36.58c0-10.09 4.09-19.24 10.71-25.86 6.62-6.61 15.76-10.71 25.86-10.71 20.2 0 36.57 16.38 36.57 36.57z" fill="#bfe471"/><path d="m73.14 365.71v36.58c0 20.19-16.37 36.57-36.57 36.57v-109.72c20.2 0 36.57 16.38 36.57 36.57z" fill="#9dd867"/><path d="m460.43 423.86h30v73.14h-30z" fill="#9dd867"/><path d="m475.43 423.86h15v73.14h-15z" fill="#77c080"/><path d="m512 365.71v36.58c0 20.19-16.37 36.57-36.57 36.57s-36.57-16.38-36.57-36.57v-36.58c0-10.09 4.09-19.24 10.71-25.86 6.62-6.61 15.76-10.71 25.86-10.71 20.2 0 36.57 16.38 36.57 36.57z" fill="#bfe471"/><path d="m512 365.71v36.58c0 20.19-16.37 36.57-36.57 36.57v-109.72c20.2 0 36.57 16.38 36.57 36.57z" fill="#9dd867"/><path d="m0 482h512v30h-512z" fill="#39648e"/><path d="m256 482h256v30h-256z" fill="#324d75"/></g></svg>