<svg width="70" height="70" viewBox="0 0 70 70" fill="none" xmlns="http://www.w3.org/2000/svg">
<g clip-path="url(#clip0_432_12)">
<rect x="6" y="15" width="57" height="51" fill="#7879F1"/>
<path d="M63 14H59.5V66.5H63C66.85 66.5 70 63.35 70 59.5V21C70 17.15 66.85 14 63 14ZM0 21V59.5C0 63.35 3.1465 66.5 7 66.5H10.5V14H7C3.1465 14 0 17.15 0 21ZM47.25 6.671C44.8665 5.565 40.6385 3.5 34.9335 3.5C29.218 3.5 25.1335 5.565 22.75 6.671V14H14V66.5H56V14H47.25V6.671ZM42 14H28V9.324C29.869 8.519 31.773 7.6965 34.9335 7.6965C38.0905 7.6965 40.1345 8.5155 42 9.324V14Z" fill="#FF3131"/>
</g>
<defs>
<clipPath id="clip0_432_12">
<rect width="70" height="70" fill="white"/>
</clipPath>
</defs>
</svg>
