<svg width="70" height="72" viewBox="0 0 70 72" fill="none" xmlns="http://www.w3.org/2000/svg">
<path d="M34.2217 2C20.8457 2 10.0029 12.8428 10.0029 26.2188C10.0029 39.5947 20.8457 50.4375 34.2217 50.4375C47.5977 50.4375 58.4404 39.5947 58.4404 26.2188C58.4404 12.8428 47.5977 2 34.2217 2ZM49.8467 23.0449V23.7217C49.8467 24.2949 49.5225 24.8193 49.0098 25.0752L47.5068 25.8271C47.2682 25.9466 47.0021 26.0008 46.7358 25.9841C46.4694 25.9675 46.2122 25.8806 45.9902 25.7324L44.2119 24.5469C44.0201 24.4191 43.8016 24.3368 43.5732 24.3061C43.3447 24.2755 43.1123 24.2974 42.8936 24.3701L42.6348 24.4561C41.6875 24.7715 41.3008 25.9004 41.8545 26.7314L43.1475 28.6709C43.4277 29.0918 43.9004 29.3447 44.4062 29.3447H45.208C46.0439 29.3447 46.7217 30.0225 46.7217 30.8584V31.9658C46.7217 32.293 46.6152 32.6123 46.4189 32.874L44.5889 35.3135C44.4502 35.499 44.3555 35.7139 44.3125 35.9414L43.8926 38.1709C43.832 38.4922 43.6689 38.7852 43.4277 39.0068C42.5023 39.8543 41.6825 40.8105 40.9863 41.8545L39.7139 43.7637C39.4664 44.1349 39.1311 44.4393 38.7377 44.6499C38.3444 44.8604 37.9051 44.9706 37.459 44.9707C36.4326 44.9707 35.4941 44.3906 35.0352 43.4727C34.5001 42.4026 34.2216 41.2227 34.2217 40.0264V37.1074C34.2217 36.2715 33.5439 35.5938 32.708 35.5938H30.1807C28.7656 35.5938 27.4092 35.0312 26.4082 34.0312C25.408 33.0305 24.846 31.6737 24.8457 30.2588V28.8857C24.8457 27.207 25.6367 25.626 26.9795 24.6182L29.6729 22.5977C30.5964 21.9051 31.7196 21.5306 32.874 21.5303H32.9609C33.7891 21.5303 34.6064 21.7227 35.3467 22.0938L36.7842 22.8125C37.1436 22.9922 37.5586 23.0215 37.9395 22.8945L42.5596 21.3545C43.1777 21.1484 43.5947 20.5703 43.5947 19.9189C43.5947 19.083 42.917 18.4053 42.0811 18.4053H41.0957C40.6943 18.4053 40.3096 18.2461 40.0254 17.9619L39.3496 17.2861C39.2091 17.1455 39.0422 17.034 38.8586 16.958C38.6749 16.8819 38.4781 16.8427 38.2793 16.8428H29.4854C28.6494 16.8428 27.9717 16.165 27.9717 15.3291V14.8994C27.9717 14.2051 28.4443 13.5996 29.1182 13.4307L30.5293 13.0781C30.8945 12.9863 31.2129 12.7627 31.4219 12.4492L32.2109 11.2666C32.4912 10.8457 32.9639 10.5928 33.4697 10.5928H35.834C36.6699 10.5928 37.3477 9.91504 37.3477 9.0791V6.95996C45.084 8.21387 51.2979 14.0137 53.1602 21.5312H51.3604C50.5244 21.5312 49.8467 22.209 49.8467 23.0449Z" fill="#FF3131"/>
<path d="M37.1019 51.4933L34.5978 53.1446L41.2302 57.7535L42.8555 65.6668L45.3596 64.0155L45.3871 58.6066L51.2541 54.7376L54.2355 67.1462L56.6067 65.5825L57.9107 50.3492L62.9192 47.0451C63.2555 46.8316 63.546 46.5533 63.7736 46.2263C64.0012 45.8994 64.1614 45.5304 64.2448 45.1409C64.3283 44.7514 64.3334 44.3492 64.2597 43.9577C64.1861 43.5662 64.0352 43.1933 63.8159 42.8607C63.5966 42.5282 63.3133 42.2426 62.9824 42.0208C62.6516 41.7989 62.2799 41.6451 61.889 41.5684C61.4981 41.4917 61.0958 41.4937 60.7057 41.5741C60.3155 41.6545 59.9453 41.8119 59.6166 42.0369L54.4756 45.4271L39.9602 40.6245L37.7197 42.1033L47.845 49.8009L42.0841 53.5999L37.1019 51.4933Z" fill="#7879F1"/>
<path d="M10.5022 32.7188C10.5022 32.7188 5.85813 40.6961 6.00334 47.2188C6.1668 54.5618 12.7189 58.226 16.0029 59.7188C21.5029 62.2188 38.003 59.7188 38.003 59.7188" stroke="#7879F1" stroke-width="2" stroke-dasharray="4 4"/>
</svg>
