<svg width="70" height="70" viewBox="0 0 70 70" fill="none" xmlns="http://www.w3.org/2000/svg">
<path d="M31.4392 7.57415C32.553 7.04644 33.7702 6.77271 35.0028 6.77271C36.2354 6.77271 37.4525 7.04644 38.5664 7.57415L59.244 17.3699C59.6042 17.5404 59.9091 17.8089 60.1238 18.1447C60.3384 18.4804 60.4541 18.8699 60.4577 19.2684C60.4612 19.6669 60.3524 20.0583 60.1438 20.3978C59.9351 20.7373 59.6351 21.0112 59.2779 21.1881L41.5 29.5C40.3502 30.0704 36.2863 26.5 35.0028 26.5C33.7193 26.5 29.6498 30.0704 28.5 29.5L13.7907 22.7069V32.2269C13.7907 32.7895 13.5672 33.329 13.1694 33.7268C12.7716 34.1246 12.232 34.3481 11.6695 34.3481C11.1069 34.3481 10.5673 34.1246 10.1695 33.7268C9.77173 33.329 9.54825 32.7895 9.54825 32.2269V19.4996V19.3935C9.52853 18.9742 9.63318 18.5584 9.84906 18.1983C10.0649 17.8383 10.3824 17.5501 10.7616 17.3699L31.4392 7.5699V7.57415Z" fill="#FF3131"/>
<path d="M35.0041 23.3936C30.611 23.3936 26.3165 24.6963 22.6637 27.137C19.011 29.5777 16.164 33.0468 14.4828 37.1055C12.8016 41.1643 12.3617 45.6304 13.2188 49.9391C14.0759 54.2478 16.1914 58.2057 19.2978 61.3121C22.4042 64.4185 26.362 66.534 30.6708 67.3911C34.9795 68.2481 39.4456 67.8083 43.5043 66.1271C47.5631 64.4459 51.0321 61.5989 53.4728 57.9461C55.9135 54.2934 57.2162 49.9989 57.2162 45.6057C57.2162 42.6888 56.6417 39.8004 55.5254 37.1055C54.4092 34.4106 52.773 31.962 50.7105 29.8994C48.6479 27.8368 46.1992 26.2007 43.5043 25.0844C40.8094 23.9681 37.9211 23.3936 35.0041 23.3936ZM35.0041 61.5754C31.8456 61.5754 28.758 60.6388 26.1318 58.8841C23.5056 57.1293 21.4588 54.6352 20.25 51.7171C19.0413 48.799 18.7251 45.588 19.3413 42.4902C19.9575 39.3924 21.4784 36.5469 23.7118 34.3135C25.9452 32.0801 28.7908 30.5591 31.8886 29.9429C34.9864 29.3267 38.1974 29.643 41.1155 30.8517C44.0335 32.0604 46.5277 34.1072 48.2824 36.7334C50.0372 39.3597 50.9738 42.4472 50.9738 45.6057C50.9738 49.8412 49.2913 53.9031 46.2964 56.898C43.3015 59.8929 39.2396 61.5754 35.0041 61.5754Z" fill="#7879F1" stroke="white" stroke-width="2"/>
<path d="M35.0044 43.4845C30.762 43.4845 30.762 42.1481 30.762 41.3633C30.762 40.5784 32.2468 39.2421 35.0044 39.2421C37.762 39.2421 37.9529 40.5996 37.9741 41.3633H42.2165C42.1878 39.9182 41.6681 38.5259 40.7428 37.4156C39.8175 36.3052 38.5418 35.543 37.1256 35.2542V32.8784H32.8832V35.1905C28.6407 35.8905 26.5195 38.6269 26.5195 41.3633C26.5195 43.739 27.6226 47.7269 35.0044 47.7269C39.2468 47.7269 39.2468 49.1693 39.2468 49.8481C39.2468 50.5269 37.9317 51.9693 35.0044 51.9693C31.1013 51.9693 30.762 50.1451 30.762 49.8481H26.5195C26.5195 51.7996 27.9195 55.2572 32.8832 56.0421V58.333H37.1256V56.0421C41.368 55.3208 43.4892 52.5845 43.4892 49.8481C43.4892 47.4724 42.3862 43.4845 35.0044 43.4845Z" fill="#7879F1"/>
</svg>
