<svg width="60" height="60" viewBox="0 0 60 60" fill="none" xmlns="http://www.w3.org/2000/svg">
<path d="M34.1939 22.2394H15.2181C14.4057 22.2394 13.7673 21.601 13.7673 20.7887C13.7673 19.9763 14.4057 19.3379 15.2181 19.3379H34.1939C35.0063 19.3379 35.6446 19.9763 35.6446 20.7887C35.6446 21.601 35.0063 22.2394 34.1939 22.2394Z" fill="#FF3131"/>
<path d="M34.1939 29.7833H15.2181C14.4057 29.7833 13.7673 29.145 13.7673 28.3326C13.7673 27.5202 14.4057 26.8819 15.2181 26.8819H34.1939C35.0063 26.8819 35.6446 27.5202 35.6446 28.3326C35.6446 29.145 35.0063 29.7833 34.1939 29.7833Z" fill="#FF3131"/>
<path d="M33.4736 34.4257C32.3718 35.2373 31.4013 36.2171 30.6002 37.3271H15.2184C14.406 37.3271 13.7677 36.6888 13.7677 35.8764C13.7677 35.064 14.406 34.4257 15.2184 34.4257H33.4736Z" fill="#FF3131"/>
<path d="M42.4338 39.4998V48.0047C42.4516 48.9451 42.2307 49.8259 41.8291 50.5955C41.6387 50.615 41.4455 50.625 41.25 50.625C40.3058 50.625 39.4159 50.3923 38.6346 49.9812C39.1859 49.5038 39.5327 48.7975 39.5327 48.0045V39.642C40.074 39.4686 40.6511 39.375 41.25 39.375C41.6561 39.375 42.0521 39.418 42.4338 39.4998Z" fill="#FF3131"/>
<path d="M42.4338 31.9277V13.0127C42.4338 9.99508 39.9387 7.5 36.921 7.5H13.0127C9.99508 7.5 7.5 9.99508 7.5 13.0127L7.5004 48.0047C7.5004 51.0224 9.99548 53.5175 13.0131 53.5175H31.2638C30.5165 52.6421 29.8822 51.6674 29.3837 50.6158H13.0131C11.5624 50.6158 10.4019 49.4553 10.4019 48.0045V13.0125C10.4019 11.5618 11.5624 10.4013 13.0131 10.4013H36.9214C38.3722 10.4013 39.5327 11.5618 39.5327 13.0125V31.9863C40.0947 31.9129 40.6679 31.875 41.25 31.875C41.649 31.875 42.0438 31.8928 42.4338 31.9277Z" fill="#FF3131"/>
<path d="M41.25 33.75C35.0368 33.75 30 38.7868 30 45C30 51.2132 35.0368 56.25 41.25 56.25C45.4202 56.25 49.0573 53.9793 51.0004 50.6085L47.0398 48.3302C45.8853 50.3326 43.7274 51.6838 41.25 51.6838C37.5586 51.6838 34.5662 48.6914 34.5662 45C34.5662 41.3086 37.5586 38.3162 41.25 38.3162C42.8323 38.3162 44.2825 38.8697 45.4262 39.7897L42.4722 41.8909L52.5 45.2348V34.7552L49.2343 37.0789C47.1961 35.0241 44.3729 33.75 41.25 33.75Z" fill="#FF3131"/>
</svg>
