<svg width="60" height="60" viewBox="0 0 60 60" fill="none" xmlns="http://www.w3.org/2000/svg">
<path d="M40.6687 25.3666C41.3108 24.5961 41.2067 23.451 40.4362 22.8089C39.6657 22.1668 38.5205 22.2709 37.8784 23.0414L27.5596 35.424L22.0106 29.875C21.3014 29.1658 20.1515 29.1658 19.4423 29.875C18.7331 30.5843 18.7331 31.7341 19.4423 32.4434L26.3975 39.3985C26.7582 39.7593 27.2542 39.9517 27.7639 39.9286C28.2736 39.9055 28.7501 39.669 29.0768 39.277L40.6687 25.3666Z" fill="#FF3131"/>
<path fill-rule="evenodd" clip-rule="evenodd" d="M30 5C16.1929 5 5 16.1929 5 30C5 43.8071 16.1929 55 30 55C43.8071 55 55 43.8071 55 30C55 16.1929 43.8071 5 30 5ZM8.63215 30C8.63215 18.1989 18.1989 8.63215 30 8.63215C41.8011 8.63215 51.3679 18.1989 51.3679 30C51.3679 41.8011 41.8011 51.3679 30 51.3679C18.1989 51.3679 8.63215 41.8011 8.63215 30Z" fill="#FF3131"/>
</svg>
