<svg width="70" height="70" viewBox="0 0 70 70" fill="none" xmlns="http://www.w3.org/2000/svg">
<path d="M67.8598 32.5856H2.13965C1.05232 32.5856 0.170898 33.467 0.170898 34.5543V67.8946C0.170898 68.9819 1.05232 69.8633 2.13965 69.8633H67.8598C68.9471 69.8633 69.8286 68.9819 69.8286 67.8946V34.5543C69.8286 33.467 68.9471 32.5856 67.8598 32.5856Z" fill="#ED2727"/>
<path d="M60.1802 47.3737H57.7725C57.5114 47.3737 57.261 47.27 57.0764 47.0854C56.8918 46.9008 56.7881 46.6504 56.7881 46.3893V39.9871C56.7881 39.726 56.8918 39.4756 57.0764 39.291C57.261 39.1064 57.5114 39.0027 57.7725 39.0027H60.1802C60.4413 39.0027 60.6917 39.1064 60.8763 39.291C61.0609 39.4756 61.1646 39.726 61.1646 39.9871V46.3893C61.1646 46.6504 61.0609 46.9008 60.8763 47.0854C60.6917 47.27 60.4413 47.3737 60.1802 47.3737ZM67.4735 46.3893V39.9871C67.4735 39.726 67.3698 39.4756 67.1852 39.291C67.0006 39.1064 66.7502 39.0027 66.4891 39.0027H64.0813C63.8203 39.0027 63.5699 39.1064 63.3853 39.291C63.2007 39.4756 63.097 39.726 63.097 39.9871V46.3893C63.097 46.6504 63.2007 46.9008 63.3853 47.0854C63.5699 47.27 63.8203 47.3737 64.0813 47.3737H66.4891C66.7502 47.3737 67.0006 47.27 67.1852 47.0854C67.3698 46.9008 67.4735 46.6504 67.4735 46.3893ZM7.2974 46.3893V39.9871C7.2974 39.726 7.19369 39.4756 7.00909 39.291C6.82448 39.1064 6.5741 39.0027 6.31303 39.0027H3.90527C3.6442 39.0027 3.39382 39.1064 3.20922 39.291C3.02461 39.4756 2.9209 39.726 2.9209 39.9871V46.3893C2.9209 46.6504 3.02461 46.9008 3.20922 47.0854C3.39382 47.27 3.6442 47.3737 3.90527 47.3737H6.31303C6.4423 47.3737 6.5703 47.3482 6.68973 47.2988C6.80916 47.2493 6.91768 47.1768 7.00909 47.0854C7.10049 46.994 7.173 46.8855 7.22247 46.766C7.27194 46.6466 7.2974 46.5186 7.2974 46.3893ZM13.6063 46.3893V39.9871C13.6063 39.726 13.5026 39.4756 13.318 39.291C13.1334 39.1064 12.883 39.0027 12.6219 39.0027H10.2143C9.95322 39.0027 9.70284 39.1064 9.51824 39.291C9.33363 39.4756 9.22992 39.726 9.22992 39.9871V46.3893C9.22992 46.6504 9.33363 46.9008 9.51824 47.0854C9.70284 47.27 9.95322 47.3737 10.2143 47.3737H12.6221C12.8831 47.3737 13.1334 47.2699 13.318 47.0853C13.5026 46.9007 13.6063 46.6504 13.6063 46.3893ZM7.2974 54.0044V51.8659C7.2974 51.7366 7.27194 51.6086 7.22247 51.4892C7.173 51.3697 7.10049 51.2612 7.00909 51.1698C6.91768 51.0784 6.80916 51.0059 6.68973 50.9564C6.5703 50.907 6.4423 50.8815 6.31303 50.8815H3.90527C3.6442 50.8815 3.39382 50.9852 3.20922 51.1698C3.02461 51.3544 2.9209 51.6048 2.9209 51.8659V54.0044C2.9209 54.2655 3.02461 54.5159 3.20922 54.7005C3.39382 54.8851 3.6442 54.9888 3.90527 54.9888H6.31303C6.4423 54.9888 6.5703 54.9633 6.68973 54.9139C6.80916 54.8644 6.91768 54.7919 7.00909 54.7005C7.10049 54.6091 7.173 54.5006 7.22247 54.3811C7.27194 54.2617 7.2974 54.1337 7.2974 54.0044ZM13.6063 54.0044V51.8659C13.6063 51.6048 13.5026 51.3544 13.318 51.1698C13.1334 50.9852 12.883 50.8815 12.6219 50.8815H10.2143C9.95322 50.8815 9.70284 50.9852 9.51824 51.1698C9.33363 51.3544 9.22992 51.6048 9.22992 51.8659V54.0044C9.22992 54.2655 9.33363 54.5159 9.51824 54.7005C9.70284 54.8851 9.95322 54.9888 10.2143 54.9888H12.6221C12.8831 54.9888 13.1334 54.885 13.318 54.7004C13.5026 54.5158 13.6063 54.2655 13.6063 54.0044ZM7.2974 61.392V59.2535C7.2974 59.1242 7.27194 58.9962 7.22247 58.8768C7.173 58.7573 7.10049 58.6488 7.00909 58.5574C6.91768 58.466 6.80916 58.3935 6.68973 58.344C6.5703 58.2945 6.4423 58.2691 6.31303 58.2691H3.90527C3.6442 58.2691 3.39382 58.3728 3.20922 58.5574C3.02461 58.742 2.9209 58.9924 2.9209 59.2535V61.392C2.9209 61.6531 3.02461 61.9035 3.20922 62.0881C3.39382 62.2727 3.6442 62.3764 3.90527 62.3764H6.31303C6.4423 62.3764 6.5703 62.3509 6.68973 62.3015C6.80916 62.252 6.91768 62.1795 7.00909 62.0881C7.10049 61.9967 7.173 61.8882 7.22247 61.7687C7.27194 61.6493 7.2974 61.5213 7.2974 61.392ZM13.6063 61.392V59.2535C13.6063 58.9924 13.5026 58.742 13.318 58.5574C13.1334 58.3728 12.883 58.2691 12.6219 58.2691H10.2143C9.95322 58.2691 9.70284 58.3728 9.51824 58.5574C9.33363 58.742 9.22992 58.9924 9.22992 59.2535V61.392C9.22992 61.6531 9.33363 61.9035 9.51824 62.0881C9.70284 62.2727 9.95322 62.3764 10.2143 62.3764H12.6221C12.8831 62.3764 13.1334 62.2726 13.318 62.088C13.5026 61.9034 13.6063 61.6531 13.6063 61.392ZM61.1646 54.0044V51.8659C61.1646 51.6048 61.0609 51.3544 60.8763 51.1698C60.6917 50.9852 60.4413 50.8815 60.1802 50.8815H57.7725C57.5114 50.8815 57.261 50.9852 57.0764 51.1698C56.8918 51.3544 56.7881 51.6048 56.7881 51.8659V54.0044C56.7881 54.2655 56.8918 54.5159 57.0764 54.7005C57.261 54.8851 57.5114 54.9888 57.7725 54.9888H60.1802C60.4413 54.9888 60.6917 54.8851 60.8763 54.7005C61.0609 54.5159 61.1646 54.2655 61.1646 54.0044ZM67.4735 54.0044V51.8659C67.4735 51.6048 67.3698 51.3544 67.1852 51.1698C67.0006 50.9852 66.7502 50.8815 66.4891 50.8815H64.0813C63.8203 50.8815 63.5699 50.9852 63.3853 51.1698C63.2007 51.3544 63.097 51.6048 63.097 51.8659V54.0044C63.097 54.2655 63.2007 54.5159 63.3853 54.7005C63.5699 54.8851 63.8203 54.9888 64.0813 54.9888H66.4891C66.7502 54.9888 67.0006 54.8851 67.1852 54.7005C67.3698 54.5159 67.4735 54.2655 67.4735 54.0044ZM61.1646 61.392V59.2535C61.1646 58.9924 61.0609 58.742 60.8763 58.5574C60.6917 58.3728 60.4413 58.2691 60.1802 58.2691H57.7725C57.5114 58.2691 57.261 58.3728 57.0764 58.5574C56.8918 58.742 56.7881 58.9924 56.7881 59.2535V61.392C56.7881 61.6531 56.8918 61.9035 57.0764 62.0881C57.261 62.2727 57.5114 62.3764 57.7725 62.3764H60.1802C60.4413 62.3764 60.6917 62.2727 60.8763 62.0881C61.0609 61.9035 61.1646 61.6531 61.1646 61.392ZM67.4735 61.392V59.2535C67.4735 58.9924 67.3698 58.742 67.1852 58.5574C67.0006 58.3728 66.7502 58.2691 66.4891 58.2691H64.0813C63.8203 58.2691 63.5699 58.3728 63.3853 58.5574C63.2007 58.742 63.097 58.9924 63.097 59.2535V61.392C63.097 61.6531 63.2007 61.9035 63.3853 62.0881C63.5699 62.2727 63.8203 62.3764 64.0813 62.3764H66.4891C66.7502 62.3764 67.0006 62.2727 67.1852 62.0881C67.3698 61.9035 67.4735 61.6531 67.4735 61.392Z" fill="#7879F1"/>
<path d="M52.9918 9.74396H17.9495C17.3836 9.74396 16.9248 10.4051 16.9248 11.2207V68.3865C16.9248 69.202 17.3836 69.8632 17.9495 69.8632H52.9918C53.5576 69.8632 54.0165 69.202 54.0165 68.3865V11.2208C54.0165 10.4051 53.5578 9.74396 52.9918 9.74396Z" fill="#FF3131"/>
<path d="M23.8339 43.1813H20.8271C20.5661 43.1813 20.3157 43.0776 20.1311 42.893C19.9465 42.7083 19.8428 42.458 19.8428 42.1969V34.6489C19.8428 34.3879 19.9465 34.1375 20.1311 33.9529C20.3157 33.7683 20.5661 33.6646 20.8271 33.6646H23.8339C24.0949 33.6646 24.3453 33.7683 24.5299 33.9529C24.7145 34.1375 24.8182 34.3879 24.8182 34.6489V42.1969C24.8182 42.458 24.7145 42.7083 24.5299 42.893C24.3453 43.0776 24.0949 43.1813 23.8339 43.1813ZM31.9905 42.1969V34.6489C31.9905 34.3879 31.8868 34.1375 31.7022 33.9529C31.5176 33.7683 31.2672 33.6646 31.0061 33.6646H27.9994C27.7383 33.6646 27.488 33.7683 27.3034 33.9529C27.1188 34.1375 27.015 34.3879 27.015 34.6489V42.1969C27.015 42.458 27.1188 42.7083 27.3034 42.893C27.488 43.0776 27.7383 43.1813 27.9994 43.1813H31.0061C31.2672 43.1813 31.5176 43.0776 31.7022 42.893C31.8868 42.7083 31.9905 42.458 31.9905 42.1969ZM43.7513 42.1969V34.6489C43.7513 34.3879 43.6476 34.1375 43.463 33.9529C43.2784 33.7683 43.028 33.6646 42.767 33.6646H39.7604C39.4993 33.6646 39.2489 33.7683 39.0643 33.9529C38.8797 34.1375 38.776 34.3879 38.776 34.6489V42.1969C38.776 42.458 38.8797 42.7083 39.0643 42.893C39.2489 43.0776 39.4993 43.1813 39.7604 43.1813H42.767C43.028 43.1813 43.2784 43.0776 43.463 42.893C43.6476 42.7083 43.7513 42.458 43.7513 42.1969ZM50.9237 42.1969V34.6489C50.9237 34.3879 50.82 34.1375 50.6354 33.9529C50.4508 33.7683 50.2004 33.6646 49.9394 33.6646H46.9326C46.6716 33.6646 46.4212 33.7683 46.2366 33.9529C46.052 34.1375 45.9483 34.3879 45.9483 34.6489V42.1969C45.9483 42.458 46.052 42.7083 46.2366 42.893C46.4212 43.0776 46.6716 43.1813 46.9326 43.1813H49.9394C50.2004 43.1813 50.4508 43.0776 50.6354 42.893C50.82 42.7083 50.9237 42.458 50.9237 42.1969ZM24.8182 50.2344V48.0959C24.8182 47.8348 24.7145 47.5844 24.5299 47.3998C24.3453 47.2152 24.0949 47.1115 23.8339 47.1115H20.8271C20.5661 47.1115 20.3157 47.2152 20.1311 47.3998C19.9465 47.5844 19.8428 47.8348 19.8428 48.0959V50.2344C19.8428 50.4955 19.9465 50.7459 20.1311 50.9305C20.3157 51.1151 20.5661 51.2188 20.8271 51.2188H23.8339C24.0949 51.2188 24.3453 51.1151 24.5299 50.9305C24.7145 50.7459 24.8182 50.4955 24.8182 50.2344ZM31.9905 50.2344V48.0959C31.9905 47.8348 31.8868 47.5844 31.7022 47.3998C31.5176 47.2152 31.2672 47.1115 31.0061 47.1115H27.9994C27.7383 47.1115 27.488 47.2152 27.3034 47.3998C27.1188 47.5844 27.015 47.8348 27.015 48.0959V50.2344C27.015 50.4955 27.1188 50.7459 27.3034 50.9305C27.488 51.1151 27.7383 51.2188 27.9994 51.2188H31.0061C31.2672 51.2188 31.5176 51.1151 31.7022 50.9305C31.8868 50.7459 31.9905 50.4955 31.9905 50.2344ZM43.7513 50.2344V48.0959C43.7513 47.8348 43.6476 47.5844 43.463 47.3998C43.2784 47.2152 43.028 47.1115 42.767 47.1115H39.7604C39.4993 47.1115 39.2489 47.2152 39.0643 47.3998C38.8797 47.5844 38.776 47.8348 38.776 48.0959V50.2344C38.776 50.4955 38.8797 50.7459 39.0643 50.9305C39.2489 51.1151 39.4993 51.2188 39.7604 51.2188H42.767C43.028 51.2188 43.2784 51.1151 43.463 50.9305C43.6476 50.7459 43.7513 50.4955 43.7513 50.2344ZM50.9237 50.2344V48.0959C50.9237 47.8348 50.82 47.5844 50.6354 47.3998C50.4508 47.2152 50.2004 47.1115 49.9394 47.1115H46.9326C46.6716 47.1115 46.4212 47.2152 46.2366 47.3998C46.052 47.5844 45.9483 47.8348 45.9483 48.0959V50.2344C45.9483 50.4955 46.052 50.7459 46.2366 50.9305C46.4212 51.1151 46.6716 51.2188 46.9326 51.2188H49.9394C50.2004 51.2188 50.4508 51.1151 50.6354 50.9305C50.82 50.7459 50.9237 50.4955 50.9237 50.2344ZM24.8182 58.1583V56.0197C24.8182 55.7586 24.7145 55.5083 24.5299 55.3236C24.3453 55.139 24.0949 55.0353 23.8339 55.0353H20.8271C20.5661 55.0353 20.3157 55.139 20.1311 55.3236C19.9465 55.5083 19.8428 55.7586 19.8428 56.0197V58.1583C19.8428 58.4193 19.9465 58.6697 20.1311 58.8543C20.3157 59.0389 20.5661 59.1426 20.8271 59.1426H23.8339C24.0949 59.1426 24.3453 59.0389 24.5299 58.8543C24.7145 58.6697 24.8182 58.4193 24.8182 58.1583ZM50.9237 58.1583V56.0197C50.9237 55.7586 50.82 55.5083 50.6354 55.3236C50.4508 55.139 50.2004 55.0353 49.9394 55.0353H46.9326C46.6716 55.0353 46.4212 55.139 46.2366 55.3236C46.052 55.5083 45.9483 55.7586 45.9483 56.0197V58.1583C45.9483 58.4193 46.052 58.6697 46.2366 58.8543C46.4212 59.0389 46.6716 59.1426 46.9326 59.1426H49.9394C50.2004 59.1426 50.4508 59.0389 50.6354 58.8543C50.82 58.6697 50.9237 58.4193 50.9237 58.1583ZM24.8182 65.3405V63.202C24.8182 62.9409 24.7145 62.6905 24.5299 62.5059C24.3453 62.3213 24.0949 62.2176 23.8339 62.2176H20.8271C20.5661 62.2176 20.3157 62.3213 20.1311 62.5059C19.9465 62.6905 19.8428 62.9409 19.8428 63.202V65.3405C19.8428 65.6016 19.9465 65.852 20.1311 66.0366C20.3157 66.2212 20.5661 66.3249 20.8271 66.3249H23.8339C24.0949 66.3249 24.3453 66.2212 24.5299 66.0366C24.7145 65.852 24.8182 65.6016 24.8182 65.3405ZM50.9237 65.3405V63.202C50.9237 62.9409 50.82 62.6905 50.6354 62.5059C50.4508 62.3213 50.2004 62.2176 49.9394 62.2176H46.9326C46.6716 62.2176 46.4212 62.3213 46.2366 62.5059C46.052 62.6905 45.9483 62.9409 45.9483 63.202V65.3405C45.9483 65.6016 46.052 65.852 46.2366 66.0366C46.4212 66.2212 46.6716 66.3249 46.9326 66.3249H49.9394C50.2004 66.3249 50.4508 66.2212 50.6354 66.0366C50.82 65.852 50.9237 65.6016 50.9237 65.3405Z" fill="#7879F1"/>
<path d="M29.0007 55.9999C30.1967 54.8039 39.6055 54.1047 41.5007 56C43.396 57.8952 42.6055 69.8633 42.6055 69.8633H28.3367C28.3367 69.8633 27.8047 57.1959 29.0007 55.9999Z" fill="#7879F1"/>
<path d="M35.4709 30.4796C39.803 30.4796 43.3149 26.9677 43.3149 22.6356C43.3149 18.3035 39.803 14.7916 35.4709 14.7916C31.1388 14.7916 27.627 18.3035 27.627 22.6356C27.627 26.9677 31.1388 30.4796 35.4709 30.4796Z" fill="#FF473E"/>
<path d="M35.4707 28.6805C38.8092 28.6805 41.5155 25.9741 41.5155 22.6356C41.5155 19.2971 38.8092 16.5907 35.4707 16.5907C32.1322 16.5907 29.4258 19.2971 29.4258 22.6356C29.4258 25.9741 32.1322 28.6805 35.4707 28.6805Z" fill="#F4F3EF"/>
<path d="M54.9464 11.4585V9.71277C54.9464 9.4517 54.8427 9.20132 54.6581 9.01671C54.4735 8.8321 54.2231 8.72839 53.962 8.72839H16.9785C16.7174 8.72839 16.4671 8.8321 16.2825 9.01671C16.0979 9.20132 15.9941 9.4517 15.9941 9.71277V11.4585C15.9941 11.7196 16.0979 11.97 16.2825 12.1546C16.4671 12.3392 16.7174 12.4429 16.9785 12.4429H53.962C54.2231 12.4429 54.4735 12.3392 54.6581 12.1546C54.8427 11.97 54.9464 11.7196 54.9464 11.4585ZM40.234 23.2135C40.234 23.0386 40.1645 22.8709 40.0408 22.7472C39.9172 22.6236 39.7495 22.5541 39.5746 22.5541H36.0241V18.7294C36.0241 18.5545 35.9547 18.3868 35.831 18.2631C35.7073 18.1394 35.5396 18.07 35.3647 18.07C35.1898 18.07 35.0221 18.1394 34.8985 18.2631C34.7748 18.3868 34.7053 18.5545 34.7053 18.7294V23.2135C34.7053 23.3884 34.7748 23.5561 34.8985 23.6797C35.0221 23.8034 35.1898 23.8729 35.3647 23.8729H39.5746C39.7495 23.8729 39.9172 23.8034 40.0408 23.6797C40.1645 23.5561 40.234 23.3884 40.234 23.2135Z" fill="#7879F1"/>
</svg>
