<svg width="70" height="70" viewBox="0 0 70 70" fill="none" xmlns="http://www.w3.org/2000/svg">
<path d="M56.6745 46.6946V46.695C56.6745 53.607 47.3081 59.2104 35.7538 59.2104C25.7652 59.2104 17.4141 55.0222 15.3339 49.4215L14.4268 49.2036V47.6324L14.0205 47.45C13.0947 47.0347 13.0947 46.3549 14.0205 45.9395L14.4268 45.7572V31.8231L27.0291 35.3176C29.6847 34.5875 32.6395 34.1798 35.7538 34.1798C39.0608 34.1798 42.1877 34.6395 44.968 35.4568L56.6745 32.6434V46.6946Z" fill="#ED2727"/>
<path d="M16.761 53.1963L17.4655 60.8648C17.599 62.3185 16.5288 63.6053 15.0749 63.7389C13.6211 63.8724 12.3344 62.8022 12.2008 61.3483C12.187 61.1874 12.187 61.0256 12.2008 60.8646L12.9054 53.1962C13.0031 52.1314 13.9455 51.3476 15.0103 51.4455C15.9547 51.5323 16.678 52.2846 16.761 53.1963Z" fill="#7879F1"/>
<path d="M32.3078 47.2479L1.43873 30.1149C-0.0420752 29.2929 -0.0420752 27.948 1.43873 27.1261L32.3078 9.99317C33.7886 9.17122 36.2119 9.17122 37.6927 9.99317L68.5617 27.1262C70.0425 27.9482 70.0425 29.2931 68.5617 30.115L37.6928 47.2479C36.2119 48.0699 33.7887 48.0699 32.3078 47.2479Z" fill="#FF3131"/>
<path d="M14.8326 54.1163C12.642 54.1163 10.8662 52.3405 10.8662 50.1498V49.124C10.8662 46.9335 12.642 45.1575 14.8326 45.1575C17.0231 45.1575 18.7989 46.9334 18.7989 49.124V50.1498C18.7989 52.3405 17.0231 54.1163 14.8326 54.1163Z" fill="#7879F1"/>
<path d="M14.833 50.4302C13.6939 50.4302 12.7705 49.5068 12.7705 48.3677V38.9845C12.7705 38.2516 13.1596 37.5736 13.7925 37.2037L33.9596 25.4194C34.9431 24.8448 36.2063 25.1762 36.7811 26.1597C37.3557 27.1432 37.0243 28.4064 36.0409 28.9811L16.8956 40.1682V48.3678C16.8956 49.5068 15.9721 50.4302 14.833 50.4302Z" fill="#7879F1"/>
<path d="M39.6943 27.2002C39.6943 29.0195 37.5928 30.4943 35.0005 30.4943C32.4081 30.4943 30.3066 29.0195 30.3066 27.2002C30.3066 25.3809 32.4081 23.9061 35.0005 23.9061C37.5928 23.9061 39.6943 25.3809 39.6943 27.2002Z" fill="#6768EE"/>
</svg>
