<svg width="70" height="70" viewBox="0 0 70 70" fill="none" xmlns="http://www.w3.org/2000/svg">
<path d="M31.7622 48.125C31.9819 48.5433 32.0967 49.0087 32.0967 49.4812C32.0967 49.9538 31.9819 50.4192 31.7622 50.8375L25.9288 62.5042C25.7206 62.9197 25.4161 63.2794 25.0406 63.5534C24.6652 63.8273 24.2297 64.0076 23.7705 64.0792H23.333C22.9422 64.0814 22.5549 64.0052 22.1942 63.8549C21.8334 63.7045 21.5066 63.4833 21.233 63.2042L16.333 58.3333H8.74968C8.25455 58.3121 7.77091 58.1774 7.33603 57.9397C6.90115 57.7021 6.52663 57.3677 6.24135 56.9625C5.98535 56.5191 5.85059 56.0161 5.85059 55.5042C5.85059 54.9922 5.98535 54.4892 6.24135 54.0458L14.3497 37.9167C14.6185 37.3891 15.0415 36.9559 15.5625 36.6746C16.0835 36.3932 16.6778 36.2771 17.2663 36.3417C17.8788 36.4329 18.4464 36.7166 18.8868 37.1518C19.3273 37.5871 19.6178 38.1512 19.7163 38.7625C19.7323 39.1894 19.8418 39.6076 20.0372 39.9875C20.6604 40.5459 21.3965 40.9637 22.1955 41.2125C23.2171 41.6287 24.1942 42.1466 25.1122 42.7583C25.9832 43.4358 26.7756 44.2087 27.4747 45.0625C27.9473 45.7251 28.5533 46.2815 29.2538 46.6958H29.4288C29.905 46.7251 30.3667 46.8706 30.7735 47.1198C31.1803 47.369 31.5198 47.7141 31.7622 48.125ZM63.8455 54.1042L55.6497 37.9167C55.3809 37.3891 54.9578 36.9559 54.4368 36.6746C53.9159 36.3932 53.3216 36.2771 52.733 36.3417C52.1205 36.4329 51.553 36.7166 51.1125 37.1518C50.6721 37.5871 50.3815 38.1512 50.283 38.7625C50.2623 39.2016 50.1427 39.6303 49.933 40.0167C49.3156 40.561 48.59 40.9686 47.8038 41.2125C46.7787 41.621 45.8007 42.1393 44.8872 42.7583C44.0006 43.4279 43.1977 44.2015 42.4955 45.0625C42.0344 45.686 41.4725 46.2281 40.833 46.6667H40.483C40.0167 46.7158 39.569 46.8767 39.1781 47.1356C38.7871 47.3946 38.4644 47.7439 38.2372 48.1542C38.0175 48.5725 37.9027 49.0379 37.9027 49.5104C37.9027 49.9829 38.0175 50.4484 38.2372 50.8667L44.0705 62.5333C44.2788 62.9488 44.5833 63.3085 44.9587 63.5825C45.3342 63.8565 45.7696 64.0368 46.2289 64.1083H46.6664C47.0572 64.1106 47.4444 64.0343 47.8052 63.884C48.1659 63.7337 48.4928 63.5124 48.7663 63.2333L53.6664 58.3333H61.2497C61.7477 58.3261 62.2365 58.1974 62.6736 57.9585C63.1107 57.7196 63.4829 57.3778 63.758 56.9625C64.0168 56.5337 64.1608 56.0454 64.1761 55.5448C64.1914 55.0442 64.0776 54.548 63.8455 54.1042Z" fill="#FF3131"/>
<path d="M57.3121 23.8875C56.9395 23.3646 56.6356 22.7961 56.4079 22.1958C56.2353 21.5371 56.1278 20.863 56.0871 20.1833C56.0629 18.3338 55.5279 16.527 54.5413 14.9625C53.3489 13.5405 51.7982 12.4631 50.0496 11.8416C49.4046 11.6113 48.7881 11.3079 48.2121 10.9375C47.7125 10.5146 47.2536 10.0458 46.8413 9.53747C45.7328 8.02497 44.2147 6.86113 42.4663 6.1833C40.7006 5.69647 38.8361 5.69647 37.0704 6.1833C35.712 6.53274 34.2872 6.53274 32.9288 6.1833C31.1631 5.69647 29.2986 5.69647 27.5329 6.1833C25.7845 6.86113 24.2665 8.02497 23.1579 9.53747C22.7441 10.0541 22.2746 10.5236 21.7579 10.9375C21.1959 11.3142 20.5882 11.618 19.9496 11.8416C18.201 12.4631 16.6503 13.5405 15.4579 14.9625C14.4713 16.527 13.9363 18.3338 13.9121 20.1833C13.8714 20.863 13.764 21.5371 13.5913 22.1958C13.3636 22.7961 13.0597 23.3646 12.6871 23.8875C11.6022 25.4455 10.9665 27.2717 10.8496 29.1666C10.9665 31.0615 11.6022 32.8878 12.6871 34.4458C13.0528 34.9625 13.3563 35.5205 13.5913 36.1083C13.7607 36.8072 13.868 37.5197 13.9121 38.2375C13.9121 38.6166 13.9121 38.9958 13.9121 39.375C13.9121 39.7541 13.9121 39.5208 13.9121 39.6083C14.0809 40.954 14.5602 42.2421 15.3121 43.3708C16.5045 44.7927 18.0552 45.8702 19.8038 46.4916C20.4487 46.722 21.0652 47.0254 21.6413 47.3958C22.1409 47.8187 22.5998 48.2874 23.0121 48.7958C24.1206 50.3083 25.6387 51.4721 27.3871 52.15H27.7371C28.1034 52.3051 28.4845 52.4224 28.8746 52.5H29.7204C30.8046 52.4719 31.8816 52.3152 32.9288 52.0333C34.2907 51.7129 35.7085 51.7129 37.0704 52.0333C38.3829 52.4307 39.7562 52.5888 41.1246 52.5C41.4596 52.4703 41.7914 52.4118 42.1163 52.325H42.4663C44.2147 51.6471 45.7328 50.4833 46.8413 48.9708C47.2551 48.4541 47.7246 47.9846 48.2413 47.5708C48.8033 47.1941 49.411 46.8903 50.0496 46.6666C51.7856 46.0513 53.3261 44.9841 54.5121 43.575C55.2846 42.4434 55.7746 41.1432 55.9413 39.7833C55.9252 39.7162 55.9252 39.6462 55.9413 39.5791C55.9413 39.2 55.9413 38.7916 55.9413 38.4125C55.9828 37.704 56.0902 37.001 56.2621 36.3125C56.4898 35.7122 56.7937 35.1436 57.1663 34.6208C58.3338 33.029 59.0219 31.1366 59.1496 29.1666C59.0327 27.2717 58.397 25.4455 57.3121 23.8875Z" fill="#7879F1"/>
<path d="M34.9997 40.8333C41.443 40.8333 46.6663 35.61 46.6663 29.1667C46.6663 22.7233 41.443 17.5 34.9997 17.5C28.5564 17.5 23.333 22.7233 23.333 29.1667C23.333 35.61 28.5564 40.8333 34.9997 40.8333Z" fill="#FF3131"/>
</svg>
