<svg width="60" height="60" viewBox="0 0 60 60" fill="none" xmlns="http://www.w3.org/2000/svg">
<path fill-rule="evenodd" clip-rule="evenodd" d="M37.8789 33.2122C41.6103 30.6837 44.0625 26.4094 44.0625 21.5625C44.0625 13.796 37.7665 7.5 30 7.5C22.2335 7.5 15.9375 13.796 15.9375 21.5625C15.9375 26.4094 18.3897 30.6837 22.1211 33.2122C13.5249 36.3205 8.4375 44.3871 8.4375 52.5C8.4375 53.5355 9.27697 54.375 10.3125 54.375C11.348 54.375 12.1875 53.5355 12.1875 52.5C12.1875 44.1001 18.9074 35.625 30 35.625C41.0926 35.625 47.8125 44.1001 47.8125 52.5C47.8125 53.5355 48.652 54.375 49.6875 54.375C50.723 54.375 51.5625 53.5355 51.5625 52.5C51.5625 44.3871 46.4751 36.3205 37.8789 33.2122ZM19.6875 21.5625C19.6875 15.8671 24.3046 11.25 30 11.25C35.6954 11.25 40.3125 15.8671 40.3125 21.5625C40.3125 27.2579 35.6954 31.875 30 31.875C24.3046 31.875 19.6875 27.2579 19.6875 21.5625Z" fill="#FF3131"/>
</svg>
