<svg width="70" height="70" viewBox="0 0 70 70" fill="none" xmlns="http://www.w3.org/2000/svg">
<path d="M42.0609 12.4371C40.8057 12.4371 39.6018 12.9358 38.7143 13.8234C37.8267 14.7109 37.328 15.9148 37.328 17.17H34.9616C33.9156 17.17 32.9124 17.5855 32.1728 18.3252C31.4331 19.0648 31.0176 20.068 31.0176 21.114V27.4245C31.0176 29.2391 31.7124 30.9847 32.9594 32.303C34.2063 33.6212 35.9107 34.4119 37.7225 34.5127C38.3543 36.9626 39.7071 39.1664 41.6057 40.8386C43.5043 42.5108 45.8613 43.5744 48.3714 43.8917V47.1447H42.8497C41.3853 47.1447 39.9808 47.7265 38.9453 48.762C37.9098 49.7975 37.328 51.2019 37.328 52.6664V54.244C37.328 54.8716 37.5774 55.4735 38.0212 55.9173C38.4649 56.3611 39.0669 56.6104 39.6945 56.6104H60.2035C60.8311 56.6104 61.433 56.3611 61.8768 55.9173C62.3206 55.4735 62.5699 54.8716 62.5699 54.244V52.6664C62.5699 51.2019 61.9882 49.7975 60.9527 48.762C59.9172 47.7265 58.5127 47.1447 57.0483 47.1447H51.5266V43.8917C54.0367 43.5744 56.3936 42.5108 58.2923 40.8386C60.1909 39.1664 61.5437 36.9626 62.1755 34.5127C63.9873 34.4119 65.6917 33.6212 66.9386 32.303C68.1855 30.9847 68.8804 29.2391 68.8804 27.4245V21.114C68.8804 20.068 68.4649 19.0648 67.7252 18.3252C66.9856 17.5855 65.9824 17.17 64.9363 17.17H62.5699C62.5699 15.9148 62.0713 14.7109 61.1837 13.8234C60.2961 12.9358 59.0923 12.4371 57.8371 12.4371H42.0609ZM62.5699 31.2897V20.3252H64.9363C65.1456 20.3252 65.3462 20.4083 65.4941 20.5563C65.6421 20.7042 65.7252 20.9048 65.7252 21.114V27.4245C65.7253 28.3337 65.4114 29.2151 64.8364 29.9194C64.2614 30.6238 63.4608 31.1078 62.5699 31.2897ZM37.328 20.3252V31.2897C36.4372 31.1078 35.6365 30.6238 35.0616 29.9194C34.4866 29.2151 34.1726 28.3337 34.1728 27.4245V21.114C34.1728 20.9048 34.2559 20.7042 34.4038 20.5563C34.5518 20.4083 34.7524 20.3252 34.9616 20.3252H37.328Z" fill="#7879F1"/>
<path d="M12.1019 12.437C10.8467 12.437 9.64287 12.9357 8.75528 13.8232C7.8677 14.7108 7.36906 15.9146 7.36906 17.1699H5.00264C3.95661 17.1699 2.95343 17.5854 2.21378 18.325C1.47413 19.0647 1.05859 20.0679 1.05859 21.1139V27.4244C1.05861 29.2389 1.75345 30.9846 3.00039 32.3028C4.24733 33.6211 5.95172 34.4118 7.76347 34.5126C8.39527 36.9625 9.74809 39.1662 11.6467 40.8384C13.5454 42.5106 15.9023 43.5743 18.4124 43.8916V47.1446H12.8907C11.4263 47.1446 10.0218 47.7263 8.98632 48.7619C7.95081 49.7974 7.36906 51.2018 7.36906 52.6663V54.2439C7.36906 54.8715 7.61838 55.4734 8.06217 55.9172C8.50596 56.361 9.10787 56.6103 9.73549 56.6103H30.2445C30.8721 56.6103 31.474 56.361 31.9178 55.9172C32.3616 55.4734 32.6109 54.8715 32.6109 54.2439V52.6663C32.6109 51.2018 32.0292 49.7974 30.9937 48.7619C29.9582 47.7263 28.5537 47.1446 27.0893 47.1446H21.5676V43.8916C24.0777 43.5743 26.4347 42.5106 28.3333 40.8384C30.2319 39.1662 31.5847 36.9625 32.2165 34.5126C34.0283 34.4118 35.7327 33.6211 36.9796 32.3028C38.2266 30.9846 38.9214 29.2389 38.9214 27.4244V21.1139C38.9214 20.0679 38.5059 19.0647 37.7662 18.325C37.0266 17.5854 36.0234 17.1699 34.9774 17.1699H32.6109C32.6109 15.9146 32.1123 14.7108 31.2247 13.8232C30.3371 12.9357 29.1333 12.437 27.8781 12.437H12.1019ZM32.6109 31.2895V20.3251H34.9774C35.1866 20.3251 35.3872 20.4082 35.5351 20.5561C35.6831 20.7041 35.7662 20.9047 35.7662 21.1139V27.4244C35.7664 28.3336 35.4524 29.215 34.8774 29.9193C34.3025 30.6236 33.5018 31.1077 32.6109 31.2895ZM7.36906 20.3251V31.2895C6.47821 31.1077 5.67755 30.6236 5.10257 29.9193C4.5276 29.215 4.21364 28.3336 4.21383 27.4244V21.1139C4.21383 20.9047 4.29694 20.7041 4.44487 20.5561C4.5928 20.4082 4.79343 20.3251 5.00264 20.3251H7.36906Z" fill="#7879F1"/>
<path d="M24.5816 5.82892C22.9238 5.82892 21.3338 6.4875 20.1615 7.65978C18.9893 8.83205 18.3307 10.422 18.3307 12.0799H15.2052C13.8237 12.0799 12.4987 12.6287 11.5218 13.6056C10.5449 14.5825 9.99609 15.9074 9.99609 17.289V25.6236C9.99612 28.0201 10.9138 30.3257 12.5607 32.0668C14.2076 33.8079 16.4587 34.8522 18.8516 34.9854C19.686 38.2211 21.4728 41.1317 23.9804 43.3402C26.488 45.5488 29.601 46.9536 32.9162 47.3727V51.6691H25.6234C23.6893 51.6691 21.8343 52.4375 20.4667 53.8051C19.099 55.1728 18.3307 57.0277 18.3307 58.9619V61.0455C18.3307 61.8745 18.66 62.6694 19.2461 63.2556C19.8322 63.8417 20.6272 64.171 21.4561 64.171H48.5435C49.3725 64.171 50.1674 63.8417 50.7536 63.2556C51.3397 62.6694 51.669 61.8745 51.669 61.0455V58.9619C51.669 57.0277 50.9007 55.1728 49.533 53.8051C48.1653 52.4375 46.3104 51.6691 44.3762 51.6691H37.0835V47.3727C40.3987 46.9536 43.5116 45.5488 46.0193 43.3402C48.5269 41.1317 50.3136 38.2211 51.1481 34.9854C53.541 34.8522 55.792 33.8079 57.4389 32.0668C59.0858 30.3257 60.0036 28.0201 60.0036 25.6236V17.289C60.0036 15.9074 59.4548 14.5825 58.4779 13.6056C57.501 12.6287 56.176 12.0799 54.7945 12.0799H51.669C51.669 10.422 51.0104 8.83205 49.8382 7.65978C48.6659 6.4875 47.0759 5.82892 45.4181 5.82892H24.5816ZM51.669 30.7285V16.2471H54.7945C55.0708 16.2471 55.3358 16.3569 55.5312 16.5523C55.7265 16.7477 55.8363 17.0127 55.8363 17.289V25.6236C55.8365 26.8244 55.4219 27.9885 54.6625 28.9187C53.9031 29.849 52.8456 30.4883 51.669 30.7285ZM18.3307 16.2471V30.7285C17.1541 30.4883 16.0966 29.849 15.3372 28.9187C14.5778 27.9885 14.1631 26.8244 14.1634 25.6236V17.289C14.1634 17.0127 14.2731 16.7477 14.4685 16.5523C14.6639 16.3569 14.9289 16.2471 15.2052 16.2471H18.3307Z" fill="#FF3131"/>
</svg>
