<svg width="70" height="70" viewBox="0 0 70 70" fill="none" xmlns="http://www.w3.org/2000/svg">
<path d="M37.9173 52.5H8.75065C7.9771 52.5 7.23524 52.1927 6.68826 51.6457C6.14128 51.0988 5.83398 50.3569 5.83398 49.5833V11.6667C5.83398 10.8931 6.14128 10.1513 6.68826 9.60427C7.23524 9.05729 7.9771 8.75 8.75065 8.75H61.2507C62.0242 8.75 62.7661 9.05729 63.3131 9.60427C63.86 10.1513 64.1673 10.8931 64.1673 11.6667V49.5833C64.1673 50.3569 63.86 51.0988 63.3131 51.6457C62.7661 52.1927 62.0242 52.5 61.2507 52.5H49.584" fill="#FF3131"/>
<path d="M17.5 20.4166H52.5" stroke="#7879F1" stroke-width="4.08333" stroke-linecap="round" stroke-linejoin="round"/>
<path d="M17.5 30.625H26.25" stroke="#7879F1" stroke-width="4.08333" stroke-linecap="round" stroke-linejoin="round"/>
<path d="M17.5 40.8334H23.3333" stroke="#7879F1" stroke-width="4.08333" stroke-linecap="round" stroke-linejoin="round"/>
<path d="M43.75 48.125C46.0706 48.125 48.2962 47.2031 49.9372 45.5622C51.5781 43.9212 52.5 41.6956 52.5 39.375C52.5 37.0544 51.5781 34.8288 49.9372 33.1878C48.2962 31.5469 46.0706 30.625 43.75 30.625C41.4294 30.625 39.2038 31.5469 37.5628 33.1878C35.9219 34.8288 35 37.0544 35 39.375C35 41.6956 35.9219 43.9212 37.5628 45.5622C39.2038 47.2031 41.4294 48.125 43.75 48.125Z" fill="#7879F1"/>
<path d="M43.7513 58.3333L49.5846 61.25V45.8967C49.5846 45.8967 47.9221 48.125 43.7513 48.125C39.5805 48.125 37.918 45.9375 37.918 45.9375V61.25L43.7513 58.3333Z" fill="#5455E8"/>
</svg>
